<?xml version="1.0" encoding="utf-8"?>
<!-- Generator: Adobe Illustrator 19.2.0, SVG Export Plug-In . SVG Version: 6.00 Build 0)  -->
<svg version="1.1" id="Layer_1" xmlns="http://www.w3.org/2000/svg" xmlns:xlink="http://www.w3.org/1999/xlink" x="0px" y="0px"
	 viewBox="0 0 152 39" style="enable-background:new 0 0 152 39;" xml:space="preserve">
<style type="text/css">
	.st0{enable-background:new    ;}
	.st1{fill:#FFFFFF;}
	.st2{fill:url(#SVGID_1_);}
</style>
<g class="st0">
	
		<image style="overflow:visible;opacity:0.3;" width="137" height="49" xlink:href="1E67795.png"  transform="matrix(1 0 0 1 -5.9528 -3.9528)">
	</image>
	<g>
		<path class="st1" d="M0.9,36V0.7h5.2c1.2,0,2.3,0.2,3.3,0.5c1,0.4,2,0.9,2.9,1.7s1.6,1.9,2.1,3.3s0.8,3.1,0.8,5
			c0,1.9-0.3,3.6-0.8,5c-0.5,1.4-1.2,2.5-2.1,3.3c-0.9,0.8-1.8,1.4-2.9,1.7c-1,0.4-2.1,0.5-3.3,0.5V36H0.9z M6.1,16.6
			c1.6,0,2.6-0.4,3.1-1.1c0.5-0.7,0.8-2.1,0.8-4.1C10,9.4,9.7,8,9.2,7.2C8.7,6.4,7.7,6,6.1,6V16.6z"/>
		<path class="st1" d="M18,36V0.7h5.2V36H18z"/>
		<path class="st1" d="M27.1,36V0.7h4.7l4.9,18.4l0.4,1.6h0.4v-1.6V0.7h4.9V36h-4.7l-5.1-18.4L32.1,16h-0.2v1.6V36H27.1z"/>
		<path class="st1" d="M45.7,29.2v-0.4V8c0-0.1,0-0.3,0-0.4s0.1-0.5,0.1-1.1s0.2-1,0.4-1.5s0.4-1,0.8-1.6s0.7-1.1,1.2-1.5
			s1.1-0.8,1.8-1.1s1.6-0.4,2.6-0.4s1.8,0.1,2.6,0.4s1.4,0.6,1.8,1.1s0.9,0.9,1.2,1.5S58.8,4.4,59,5s0.3,1,0.4,1.5s0.1,0.8,0.1,1.1
			l0,0.4v5.4h-5.2V8c0-0.1,0-0.2,0-0.3s0-0.3-0.1-0.6S54.1,6.5,54,6.3s-0.3-0.4-0.5-0.6s-0.5-0.3-0.9-0.3c-0.5,0-1,0.2-1.2,0.6
			s-0.4,0.9-0.4,1.3l0,0.7v21.2c0,0.1,0,0.2,0,0.3s0,0.3,0.1,0.6c0.1,0.3,0.1,0.6,0.2,0.8c0.1,0.2,0.3,0.4,0.5,0.6s0.5,0.3,0.9,0.3
			c0.5,0,1-0.2,1.3-0.7s0.4-0.9,0.5-1.3l0-0.6v-6.4h-2.1v-4.4h7.2V36h-3.1l-0.6-1.7c-1.1,1.4-2.5,2.1-4,2.1c-0.9,0-1.7-0.1-2.4-0.4
			s-1.3-0.6-1.7-1.1s-0.8-0.9-1.1-1.5s-0.5-1.1-0.6-1.6c-0.1-0.5-0.2-1-0.3-1.5c0-0.4,0-0.7,0-0.9C45.7,29.3,45.7,29.2,45.7,29.2z"
			/>
		<path class="st1" d="M63.3,36V0.7h4.5c3.2,0,5.5,0.7,7.1,2.1c1.5,1.4,2.3,3.8,2.3,7.2c0,1.7-0.2,3-0.7,4.1
			c-0.4,1.1-1.3,2.1-2.4,3.2c0.1,0,0.2,0.1,0.4,0.2c0.2,0.1,0.4,0.4,0.8,0.8c0.4,0.4,0.7,0.9,1,1.5c0.3,0.6,0.6,1.4,0.8,2.5
			c0.2,1.1,0.4,2.3,0.4,3.6c0,1.1-0.1,2.1-0.2,3c-0.2,0.9-0.4,1.8-0.8,2.7c-0.4,0.9-0.9,1.6-1.4,2.2s-1.3,1.1-2.2,1.5
			c-0.9,0.4-1.9,0.6-3.1,0.6H63.3z M68.4,15.3c0.3,0,0.4,0,0.5,0s0.3,0,0.6-0.1c0.3-0.1,0.6-0.1,0.8-0.2c0.2-0.1,0.4-0.3,0.7-0.5
			s0.5-0.5,0.6-0.8c0.1-0.3,0.3-0.7,0.4-1.3c0.1-0.5,0.2-1.1,0.2-1.8s-0.1-1.3-0.2-1.8s-0.3-1-0.4-1.3c-0.1-0.3-0.4-0.6-0.6-0.8
			c-0.3-0.2-0.5-0.4-0.7-0.5c-0.2-0.1-0.4-0.2-0.8-0.2c-0.3-0.1-0.5-0.1-0.6-0.1s-0.3,0-0.5,0V15.3z M68.4,30.9c0,0,0.1,0,0.2,0
			c0.3,0,0.6,0,0.8,0s0.5-0.1,0.9-0.3s0.7-0.5,1-0.8s0.5-0.9,0.7-1.6s0.3-1.6,0.3-2.7c0-0.8-0.1-1.4-0.2-2s-0.2-1.1-0.4-1.5
			s-0.3-0.7-0.6-1s-0.5-0.5-0.6-0.6s-0.4-0.2-0.7-0.3S69.3,20,69.2,20s-0.3,0-0.6,0c-0.1,0-0.1,0-0.2,0V30.9z"/>
		<path class="st1" d="M80.7,29.2v-0.4v-28h5.2v28c0,0.1,0,0.2,0,0.3s0,0.3,0.1,0.6s0.1,0.6,0.2,0.8s0.3,0.4,0.5,0.6
			s0.5,0.3,0.9,0.3s0.6-0.1,0.9-0.3s0.4-0.4,0.5-0.6s0.2-0.5,0.2-0.8s0.1-0.5,0.1-0.7v-0.3v-28h5.2v28c0,0.1,0,0.3,0,0.4
			s-0.1,0.5-0.1,1.1s-0.2,1-0.4,1.5c-0.2,0.5-0.4,1-0.8,1.6s-0.8,1.1-1.2,1.5s-1.1,0.8-1.9,1.1s-1.6,0.4-2.6,0.4S85.8,36.2,85,36
			s-1.4-0.6-1.8-1.1s-0.9-0.9-1.2-1.5s-0.6-1.1-0.8-1.6c-0.2-0.5-0.3-1-0.4-1.5S80.7,29.5,80.7,29.2z"/>
		<path class="st1" d="M98.3,36V0.7h5.2v30.4h6.9V36H98.3z"/>
		<path class="st1" d="M112.4,36V0.7h5.2v30.4h6.9V36H112.4z"/>
	</g>
</g>
<linearGradient id="SVGID_1_" gradientUnits="userSpaceOnUse" x1="137.3828" y1="0.7261" x2="137.3828" y2="35.9996">
	<stop  offset="0" style="stop-color:#745083"/>
	<stop  offset="1" style="stop-color:#322539"/>
</linearGradient>
<path class="st2" d="M122.9,36V0.7h11.9V6h-6.7v9.6h4.8V21h-4.8v9.7h6.7V36H122.9z M137.6,36V0.7h5.1c3,0,5.2,0.9,6.6,2.6
	s2.1,4.2,2.1,7.6c0,1.9-0.3,3.5-0.8,4.9c-0.5,1.4-1.2,2.5-2.2,3.1l3.3,17h-4.9l-2.7-14.9h-1.4V36H137.6z M142.8,16.3
	c0.3,0,0.6,0,0.8,0s0.5-0.1,0.8-0.2c0.3-0.1,0.6-0.3,0.8-0.5s0.5-0.5,0.7-0.9s0.4-0.9,0.5-1.5s0.2-1.3,0.2-2.1s-0.1-1.5-0.2-2.1
	s-0.3-1.1-0.5-1.5s-0.5-0.7-0.7-0.9s-0.5-0.4-0.8-0.5s-0.6-0.2-0.8-0.2s-0.5,0-0.8,0V16.3z"/>
</svg>
