<?xml version="1.0" encoding="utf-8"?>
<!-- Generator: Adobe Illustrator 19.2.0, SVG Export Plug-In . SVG Version: 6.00 Build 0)  -->
<svg version="1.1" id="Layer_1" xmlns="http://www.w3.org/2000/svg" xmlns:xlink="http://www.w3.org/1999/xlink" x="0px" y="0px"
	 viewBox="0 0 20.1 14.4" style="enable-background:new 0 0 20.1 14.4;" xml:space="preserve">
<style type="text/css">
	.st0{fill:#76848A;}
</style>
<path class="st0" d="M12.2,0H8.3C7,0,5.9,1.1,5.9,2.4v0.9c0,1.3,1.1,2.4,2.4,2.4h3.9c1.3,0,2.4-1.1,2.4-2.4V2.4
	C14.5,1.1,13.5,0,12.2,0z M12.3,4.4H8.1c-0.4,0-0.7-0.3-0.7-0.6c0-0.3,0.3-0.6,0.7-0.6h4.2c0.4,0,0.7,0.3,0.7,0.6
	C13,4.1,12.7,4.4,12.3,4.4z M12.3,2.4H8.1c-0.4,0-0.7-0.3-0.7-0.6c0-0.3,0.3-0.6,0.7-0.6h4.2c0.4,0,0.7,0.3,0.7,0.6
	C13,2.2,12.7,2.4,12.3,2.4z"/>
<path class="st0" d="M4,11.4H1.5C0.7,11.4,0,12,0,12.8v0.5c0,0.8,0.7,1,1.5,1H4c0.8,0,1.5-0.2,1.5-1v-0.5C5.4,12,4.8,11.4,4,11.4z
	 M4.1,13.4H1.4c-0.2,0-0.4-0.2-0.4-0.4c0-0.2,0.2-0.4,0.4-0.4h2.7c0.2,0,0.4,0.2,0.4,0.4C4.5,13.2,4.3,13.4,4.1,13.4z"/>
<path class="st0" d="M11.4,11.4H8.9c-0.8,0-1.5,0.7-1.5,1.5v0.5c0,0.8,0.7,1,1.5,1h2.5c0.8,0,1.5-0.2,1.5-1v-0.5
	C12.9,12,12.2,11.4,11.4,11.4z M11.5,13.4H8.8c-0.2,0-0.4-0.2-0.4-0.4c0-0.2,0.2-0.4,0.4-0.4h2.7c0.2,0,0.4,0.2,0.4,0.4
	C11.9,13.2,11.7,13.4,11.5,13.4z"/>
<path class="st0" d="M18.7,11.4h-2.5c-0.8,0-1.5,0.7-1.5,1.5v0.5c0,0.8,0.7,1,1.5,1h2.5c0.8,0,1.5-0.2,1.5-1v-0.5
	C20.1,12,19.5,11.4,18.7,11.4z M18.8,13.4h-2.7c-0.2,0-0.4-0.2-0.4-0.4c0-0.2,0.2-0.4,0.4-0.4h2.7c0.2,0,0.4,0.2,0.4,0.4
	C19.2,13.2,19,13.4,18.8,13.4z"/>
<polygon class="st0" points="3.2,7.2 2.3,7.2 2.3,8.1 2.3,11.2 3.2,11.2 3.2,8.1 9.1,8.1 9.1,7.2 "/>
<polygon class="st0" points="17,7.2 11.3,7.2 11.3,8.1 17,8.1 17,11.2 17.9,11.2 17.9,8.1 17.9,7.2 "/>
<polygon class="st0" points="9.9,6.5 9.9,7.2 9.9,8.1 9.9,10.1 10.6,10.1 10.6,8.1 10.6,7.2 10.6,6.5 "/>
</svg>
