<?xml version="1.0" encoding="utf-8"?>
<!-- Generator: Adobe Illustrator 19.2.0, SVG Export Plug-In . SVG Version: 6.00 Build 0)  -->
<svg version="1.1" id="Layer_1" xmlns="http://www.w3.org/2000/svg" xmlns:xlink="http://www.w3.org/1999/xlink" x="0px" y="0px"
	 width="110px" height="24px" viewBox="0 0 110 24" style="enable-background:new 0 0 110 24;" xml:space="preserve">
<style type="text/css">
	.st0{fill:none;enable-background:new    ;}
	.st1{clip-path:url(#SVGID_2_);enable-background:new    ;}
	.st2{clip-path:url(#SVGID_4_);}
	.st3{clip-path:url(#SVGID_6_);}
	.st4{clip-path:url(#SVGID_8_);fill:#DD4F51;}
	.st5{clip-path:url(#SVGID_10_);enable-background:new    ;}
	.st6{clip-path:url(#SVGID_12_);}
	.st7{clip-path:url(#SVGID_14_);}
	.st8{clip-path:url(#SVGID_16_);fill:#DD4F51;}
	.st9{fill:none;stroke:#DD4F51;stroke-width:0.5;stroke-miterlimit:10;}
	.st10{clip-path:url(#SVGID_18_);enable-background:new    ;}
	.st11{clip-path:url(#SVGID_20_);}
	.st12{clip-path:url(#SVGID_22_);fill:none;stroke:#DD4F51;stroke-width:0.5;stroke-miterlimit:10;}
	.st13{clip-path:url(#SVGID_24_);}
	.st14{clip-path:url(#SVGID_26_);fill:#DD4F51;}
</style>
<path class="st0" d="z"/>
<g>
	<defs>
		<path id="SVGID_1_" d="M12.6,11.2c0.4,0,0.7-0.3,0.7-0.7c0-0.4-0.3-0.7-0.7-0.7c-0.4,0-0.7,0.3-0.7,0.7
			C11.8,10.9,12.1,11.2,12.6,11.2z M13.2,15.8h1.9c0.7,0,1-0.5,0.7-1.1l-1.2-2.3c0-0.1,0-0.1,0-0.2c0,0-0.1-0.9-0.5-2.5
			c-0.4-1.6-1-2.4-1-2.4c-0.3-0.5-0.8-0.5-1.2,0c0,0-0.5,0.5-1,2.4c-0.5,1.9-0.5,2.5-0.5,2.5c0,0.1,0,0.1,0,0.2l-1.2,2.3
			c-0.3,0.6,0,1.1,0.7,1.1h2l0.3,0.3c0.1,0.1,0.4,0.1,0.5,0L13.2,15.8z M0.1,20.9c0-0.4,0.2-0.8,0.4-1.2L10.7,2.5
			c1-1.7,2.7-1.7,3.7,0l10.2,17.3c0.2,0.4,0.4,0.8,0.4,1.2v0.5c-0.1,0.8-0.8,1.4-2,1.5c-0.5-0.6-1.2-1-2.1-1c-0.2,0-0.5,0-0.7,0.1
			c-0.4-0.8-1.1-1.3-2-1.3c-0.9,0-1.6,0.5-2,1.2c-2.8-0.9-3.4-4.8-3.4-4.8h-0.4l0,0h-0.4c0,0-0.6,3.9-3.4,4.8
			c-0.4-0.7-1.1-1.2-2-1.2c-0.9,0-1.7,0.5-2,1.3c-0.2-0.1-0.4-0.1-0.7-0.1c-0.8,0-1.6,0.4-2.1,1c-1.2-0.1-1.9-0.7-2-1.5V20.9z"/>
	</defs>
	<clipPath id="SVGID_2_">
		<use xlink:href="#SVGID_1_"  style="overflow:visible;"/>
	</clipPath>
	<g class="st1">
		<g>
			<defs>
				<rect id="SVGID_3_" x="0.1" y="1.2" width="25" height="21.7"/>
			</defs>
			<clipPath id="SVGID_4_">
				<use xlink:href="#SVGID_3_"  style="overflow:visible;"/>
			</clipPath>
			<g class="st2">
				<defs>
					<rect id="SVGID_5_" x="0.1" y="1.2" width="25" height="21.7"/>
				</defs>
				<clipPath id="SVGID_6_">
					<use xlink:href="#SVGID_5_"  style="overflow:visible;"/>
				</clipPath>
				<g class="st3">
					<defs>
						<rect id="SVGID_7_" x="0.1" width="25" height="22.9"/>
					</defs>
					<clipPath id="SVGID_8_">
						<use xlink:href="#SVGID_7_"  style="overflow:visible;"/>
					</clipPath>
					<rect x="-6.2" y="-4.8" class="st4" width="37.5" height="33.7"/>
				</g>
			</g>
		</g>
	</g>
</g>
<g>
	<defs>
		<path id="SVGID_9_" d="M97.7,7.2c0-2.5,2.1-4.6,4.8-4.6c2.6,0,4.8,2.1,4.8,4.6s-2.2,4.6-4.8,4.6C99.8,11.8,97.7,9.8,97.7,7.2z
			 M95,7.2c0,4,3.3,7.2,7.5,7.2c4.2,0,7.5-3.2,7.5-7.2c0-4-3.3-7.2-7.5-7.2C98.3,0,95,3.2,95,7.2z M86.2,13.9c0,0.2,0.2,0.4,0.4,0.4
			h1.9c0.2,0,0.4-0.2,0.4-0.4V2.6h3.2c0.2,0,0.4-0.2,0.4-0.4V0.6c0-0.2-0.2-0.4-0.4-0.4H83c-0.2,0-0.4,0.2-0.4,0.4v1.6
			c0,0.2,0.2,0.4,0.4,0.4h3.2V13.9z M69,13.9c0,0.2,0.2,0.4,0.4,0.4h8.5c0.2,0,0.4-0.2,0.4-0.4v-1.6c0-0.2-0.2-0.4-0.4-0.4h-6.2V8.3
			h5.1c0.2,0,0.4-0.2,0.4-0.4V6.3c0-0.2-0.2-0.4-0.4-0.4h-5.1V2.6h6.2c0.2,0,0.4-0.2,0.4-0.4V0.6c0-0.2-0.2-0.4-0.4-0.4h-8.5
			c-0.2,0-0.4,0.2-0.4,0.4V13.9z M55.7,6.6v-4h3.4c1.1,0,2.1,0.9,2.1,1.9c0,1.1-1,2-2.1,2H55.7z M53,13.9c0,0.2,0.2,0.4,0.4,0.4h1.9
			c0.2,0,0.4-0.2,0.4-0.4V8.7H58l2.8,5.3c0,0.1,0.1,0.2,0.3,0.2h2.2c0.4,0,0.5-0.3,0.4-0.6l-2.9-5.1c1.8-0.7,3.1-2.2,3.1-4.1
			c0-2.4-2-4.3-4.5-4.3h-6c-0.2,0-0.4,0.2-0.4,0.4V13.9z M39.9,9.4l2-4.4H42l2.1,4.4H39.9z M35.4,14.2h1.8c0.3,0,0.5-0.2,0.6-0.4
			l1-2.2h6.2l1,2.2c0.1,0.3,0.3,0.4,0.6,0.4h1.8c0.3,0,0.5-0.3,0.4-0.5L42.5,0.2C42.4,0.1,42.3,0,42.1,0h-0.2
			c-0.2,0-0.3,0.1-0.4,0.2l-6.5,13.5C35,14,35.1,14.2,35.4,14.2z"/>
	</defs>
	<clipPath id="SVGID_10_">
		<use xlink:href="#SVGID_9_"  style="overflow:visible;"/>
	</clipPath>
	<g class="st5">
		<g>
			<defs>
				<rect id="SVGID_11_" x="35" width="75" height="14.4"/>
			</defs>
			<clipPath id="SVGID_12_">
				<use xlink:href="#SVGID_11_"  style="overflow:visible;"/>
			</clipPath>
			<g class="st6">
				<defs>
					<rect id="SVGID_13_" x="35" y="0" width="75" height="14.5"/>
				</defs>
				<clipPath id="SVGID_14_">
					<use xlink:href="#SVGID_13_"  style="overflow:visible;"/>
				</clipPath>
				<g class="st7">
					<defs>
						<rect id="SVGID_15_" x="33.8" width="76.2" height="14.4"/>
					</defs>
					<clipPath id="SVGID_16_">
						<use xlink:href="#SVGID_15_"  style="overflow:visible;"/>
					</clipPath>
					<rect x="28.8" y="-6" class="st8" width="87.5" height="26.5"/>
				</g>
			</g>
		</g>
	</g>
</g>
<g>
	<path class="st9" d="M108.5,23.8C108.5,23.8,108.5,23.8,108.5,23.8L108.5,23.8c0.1,0,0.1,0,0.1,0v-4.4h1.4c0,0,0,0,0,0v0
		c0,0,0,0,0,0h-3c0,0,0,0,0,0v0c0,0,0,0,0,0h1.4V23.8z M99.8,23.9C99.8,23.9,99.8,23.9,99.8,23.9L99.8,23.9c0.1,0,0.1,0,0.1,0v-4.4
		l3.5,4.5c0,0,0.1,0,0.1,0v-4.6c0,0,0,0,0,0h0c0,0,0,0,0,0v4.4l-3.5-4.5c0,0-0.1,0-0.1,0V23.9z M93.2,23.9
		C93.2,23.9,93.2,23.9,93.2,23.9l2.8,0c0,0,0,0,0,0v0c0,0,0,0,0,0h-2.7v-2.2h2.4c0,0,0,0,0,0v0c0,0,0,0,0,0h-2.4v-2H96c0,0,0,0,0,0
		v0c0,0,0,0,0,0h-2.8c0,0,0,0,0,0V23.9z M84.1,23.9C84.1,23.9,84.1,23.9,84.1,23.9L84.1,23.9c0.1,0.1,0.1,0.1,0.1,0l0.9-4.3l1.5,4.4
		c0,0,0.1,0,0.1,0l1.4-4.4l1,4.3c0,0,0,0,0,0l0.1,0c0,0,0,0,0-0.1l-1-4.6c0,0-0.1,0-0.1,0l-1.4,4.4l-1.5-4.4c0,0-0.1,0-0.1,0
		L84.1,23.9z M77.7,22.2v-2.7H79c0.8,0,1.4,0.6,1.4,1.4c0,0.8-0.6,1.4-1.4,1.4H77.7z M77.6,23.9C77.6,23.9,77.6,23.9,77.6,23.9
		L77.6,23.9c0.1,0,0.1,0,0.1,0v-1.6H79c0.8,0,1.5-0.7,1.5-1.5c0-0.8-0.7-1.5-1.6-1.5h-1.4c0,0,0,0,0,0V23.9z M68.7,21.7
		c0-1.2,1-2.2,2.3-2.2s2.3,1,2.3,2.2c0,1.2-1,2.2-2.3,2.2S68.7,22.9,68.7,21.7z M68.6,21.7c0,1.3,1.1,2.3,2.4,2.3
		c1.4,0,2.5-1,2.5-2.3c0-1.3-1.1-2.4-2.5-2.4C69.7,19.3,68.6,20.3,68.6,21.7z M62.8,23.9C62.8,23.9,62.8,23.9,62.8,23.9l2.5,0
		c0,0,0,0,0,0v0c0,0,0,0,0,0h-2.4v-4.4c0,0,0,0,0,0h0c0,0,0,0,0,0V23.9z M56.2,23.9C56.2,23.9,56.2,23.9,56.2,23.9l2.8,0
		c0,0,0,0,0,0v0c0,0,0,0,0,0h-2.7v-2.2h2.4c0,0,0,0,0,0v0c0,0,0,0,0,0h-2.4v-2H59c0,0,0,0,0,0v0c0,0,0,0,0,0h-2.8c0,0,0,0,0,0V23.9z
		 M50.3,24C50.3,24.1,50.4,24.1,50.3,24l2.2-4.6c0,0,0,0,0,0l-0.1,0c0,0,0,0,0,0l-2,4.5l-2-4.5c0,0,0,0,0,0l-0.1,0c0,0,0,0,0,0
		L50.3,24z M42.4,23.9C42.4,23.9,42.4,23.9,42.4,23.9l2.8,0c0,0,0,0,0,0v0c0,0,0,0,0,0h-2.7v-2.2h2.4c0,0,0,0,0,0v0c0,0,0,0,0,0
		h-2.4v-2h2.7c0,0,0,0,0,0v0c0,0,0,0,0,0h-2.8c0,0,0,0,0,0V23.9z M35.2,23.8v-4.3h1.3c1.3,0,2.3,1,2.3,2.2c0,1.2-1,2.2-2.3,2.2H35.2
		z M35,23.9C35,23.9,35.1,23.9,35,23.9l1.4,0c1.3,0,2.4-1,2.4-2.3c0-1.3-1.1-2.3-2.4-2.3h-1.4c0,0,0,0,0,0V23.9z"/>
</g>
<g>
	<g>
		<defs>
			<path id="SVGID_17_" d="M108.5,23.8C108.5,23.8,108.5,23.8,108.5,23.8L108.5,23.8c0.1,0,0.1,0,0.1,0v-4.4h1.4c0,0,0,0,0,0v0
				c0,0,0,0,0,0h-3c0,0,0,0,0,0v0c0,0,0,0,0,0h1.4V23.8z M99.8,23.9C99.8,23.9,99.8,23.9,99.8,23.9L99.8,23.9c0.1,0,0.1,0,0.1,0
				v-4.4l3.5,4.5c0,0,0.1,0,0.1,0v-4.6c0,0,0,0,0,0h0c0,0,0,0,0,0v4.4l-3.5-4.5c0,0-0.1,0-0.1,0V23.9z M93.2,23.9
				C93.2,23.9,93.2,23.9,93.2,23.9l2.8,0c0,0,0,0,0,0v0c0,0,0,0,0,0h-2.7v-2.2h2.4c0,0,0,0,0,0v0c0,0,0,0,0,0h-2.4v-2H96
				c0,0,0,0,0,0v0c0,0,0,0,0,0h-2.8c0,0,0,0,0,0V23.9z M84.1,23.9C84.1,23.9,84.1,23.9,84.1,23.9L84.1,23.9c0.1,0.1,0.1,0.1,0.1,0
				l0.9-4.3l1.5,4.4c0,0,0.1,0,0.1,0l1.4-4.4l1,4.3c0,0,0,0,0,0l0.1,0c0,0,0,0,0-0.1l-1-4.6c0,0-0.1,0-0.1,0l-1.4,4.4l-1.5-4.4
				c0,0-0.1,0-0.1,0L84.1,23.9z M77.7,22.2v-2.7H79c0.8,0,1.4,0.6,1.4,1.4c0,0.8-0.6,1.4-1.4,1.4H77.7z M77.6,23.9
				C77.6,23.9,77.6,23.9,77.6,23.9L77.6,23.9c0.1,0,0.1,0,0.1,0v-1.6H79c0.8,0,1.5-0.7,1.5-1.5c0-0.8-0.7-1.5-1.6-1.5h-1.4
				c0,0,0,0,0,0V23.9z M68.7,21.7c0-1.2,1-2.2,2.3-2.2c1.3,0,2.3,1,2.3,2.2c0,1.2-1,2.2-2.3,2.2C69.7,23.9,68.7,22.9,68.7,21.7z
				 M68.6,21.7c0,1.3,1.1,2.3,2.4,2.3c1.4,0,2.5-1,2.5-2.3c0-1.3-1.1-2.4-2.5-2.4C69.7,19.3,68.6,20.3,68.6,21.7z M62.8,23.9
				C62.8,23.9,62.8,23.9,62.8,23.9l2.5,0c0,0,0,0,0,0v0c0,0,0,0,0,0h-2.4v-4.4c0,0,0,0,0,0h0c0,0,0,0,0,0V23.9z M56.2,23.9
				C56.2,23.9,56.2,23.9,56.2,23.9l2.8,0c0,0,0,0,0,0v0c0,0,0,0,0,0h-2.7v-2.2h2.4c0,0,0,0,0,0v0c0,0,0,0,0,0h-2.4v-2H59
				c0,0,0,0,0,0v0c0,0,0,0,0,0h-2.8c0,0,0,0,0,0V23.9z M50.3,24C50.3,24.1,50.4,24.1,50.3,24l2.2-4.6c0,0,0,0,0,0l-0.1,0
				c0,0,0,0,0,0l-2,4.5l-2-4.5c0,0,0,0,0,0l-0.1,0c0,0,0,0,0,0L50.3,24z M42.4,23.9C42.4,23.9,42.4,23.9,42.4,23.9l2.8,0
				c0,0,0,0,0,0v0c0,0,0,0,0,0h-2.7v-2.2h2.4c0,0,0,0,0,0v0c0,0,0,0,0,0h-2.4v-2h2.7c0,0,0,0,0,0v0c0,0,0,0,0,0h-2.8c0,0,0,0,0,0
				V23.9z M35.2,23.8v-4.3h1.3c1.3,0,2.3,1,2.3,2.2c0,1.2-1,2.2-2.3,2.2H35.2z M35,23.9C35,23.9,35.1,23.9,35,23.9l1.4,0
				c1.3,0,2.4-1,2.4-2.3c0-1.3-1.1-2.3-2.4-2.3h-1.4c0,0,0,0,0,0V23.9z"/>
		</defs>
		<clipPath id="SVGID_18_">
			<use xlink:href="#SVGID_17_"  style="overflow:visible;"/>
		</clipPath>
		<g class="st10">
			<g>
				<defs>
					<rect id="SVGID_19_" x="35" y="18.1" width="76.2" height="6"/>
				</defs>
				<clipPath id="SVGID_20_">
					<use xlink:href="#SVGID_19_"  style="overflow:visible;"/>
				</clipPath>
				<g class="st11">
					<defs>
						<rect id="SVGID_21_" x="35" y="18.1" width="76.2" height="6"/>
					</defs>
					<clipPath id="SVGID_22_">
						<use xlink:href="#SVGID_21_"  style="overflow:visible;"/>
					</clipPath>
					<path class="st12" d="M108.5,23.8C108.5,23.8,108.5,23.8,108.5,23.8L108.5,23.8c0.1,0,0.1,0,0.1,0v-4.4h1.4c0,0,0,0,0,0v0
						c0,0,0,0,0,0h-3c0,0,0,0,0,0v0c0,0,0,0,0,0h1.4V23.8z M99.8,23.9C99.8,23.9,99.8,23.9,99.8,23.9L99.8,23.9c0.1,0,0.1,0,0.1,0
						v-4.4l3.5,4.5c0,0,0.1,0,0.1,0v-4.6c0,0,0,0,0,0h0c0,0,0,0,0,0v4.4l-3.5-4.5c0,0-0.1,0-0.1,0V23.9z M93.2,23.9
						C93.2,23.9,93.2,23.9,93.2,23.9l2.8,0c0,0,0,0,0,0v0c0,0,0,0,0,0h-2.7v-2.2h2.4c0,0,0,0,0,0v0c0,0,0,0,0,0h-2.4v-2H96
						c0,0,0,0,0,0v0c0,0,0,0,0,0h-2.8c0,0,0,0,0,0V23.9z M84.1,23.9C84.1,23.9,84.1,23.9,84.1,23.9L84.1,23.9c0.1,0.1,0.1,0.1,0.1,0
						l0.9-4.3l1.5,4.4c0,0,0.1,0,0.1,0l1.4-4.4l1,4.3c0,0,0,0,0,0l0.1,0c0,0,0,0,0-0.1l-1-4.6c0,0-0.1,0-0.1,0l-1.4,4.4l-1.5-4.4
						c0,0-0.1,0-0.1,0L84.1,23.9z M77.7,22.2v-2.7H79c0.8,0,1.4,0.6,1.4,1.4c0,0.8-0.6,1.4-1.4,1.4H77.7z M77.6,23.9
						C77.6,23.9,77.6,23.9,77.6,23.9L77.6,23.9c0.1,0,0.1,0,0.1,0v-1.6H79c0.8,0,1.5-0.7,1.5-1.5c0-0.8-0.7-1.5-1.6-1.5h-1.4
						c0,0,0,0,0,0V23.9z M68.7,21.7c0-1.2,1-2.2,2.3-2.2s2.3,1,2.3,2.2c0,1.2-1,2.2-2.3,2.2S68.7,22.9,68.7,21.7z M68.6,21.7
						c0,1.3,1.1,2.3,2.4,2.3c1.4,0,2.5-1,2.5-2.3c0-1.3-1.1-2.4-2.5-2.4C69.7,19.3,68.6,20.3,68.6,21.7z M62.8,23.9
						C62.8,23.9,62.8,23.9,62.8,23.9l2.5,0c0,0,0,0,0,0v0c0,0,0,0,0,0h-2.4v-4.4c0,0,0,0,0,0h0c0,0,0,0,0,0V23.9z M56.2,23.9
						C56.2,23.9,56.2,23.9,56.2,23.9l2.8,0c0,0,0,0,0,0v0c0,0,0,0,0,0h-2.7v-2.2h2.4c0,0,0,0,0,0v0c0,0,0,0,0,0h-2.4v-2H59
						c0,0,0,0,0,0v0c0,0,0,0,0,0h-2.8c0,0,0,0,0,0V23.9z M50.3,24C50.3,24.1,50.4,24.1,50.3,24l2.2-4.6c0,0,0,0,0,0l-0.1,0
						c0,0,0,0,0,0l-2,4.5l-2-4.5c0,0,0,0,0,0l-0.1,0c0,0,0,0,0,0L50.3,24z M42.4,23.9C42.4,23.9,42.4,23.9,42.4,23.9l2.8,0
						c0,0,0,0,0,0v0c0,0,0,0,0,0h-2.7v-2.2h2.4c0,0,0,0,0,0v0c0,0,0,0,0,0h-2.4v-2h2.7c0,0,0,0,0,0v0c0,0,0,0,0,0h-2.8c0,0,0,0,0,0
						V23.9z M35.2,23.8v-4.3h1.3c1.3,0,2.3,1,2.3,2.2c0,1.2-1,2.2-2.3,2.2H35.2z M35,23.9C35,23.9,35.1,23.9,35,23.9l1.4,0
						c1.3,0,2.4-1,2.4-2.3c0-1.3-1.1-2.3-2.4-2.3h-1.4c0,0,0,0,0,0V23.9z"/>
				</g>
				<g class="st11">
					<defs>
						<rect id="SVGID_23_" x="35" y="19.2" width="75" height="4.9"/>
					</defs>
					<clipPath id="SVGID_24_">
						<use xlink:href="#SVGID_23_"  style="overflow:visible;"/>
					</clipPath>
					<g class="st13">
						<defs>
							<rect id="SVGID_25_" x="35" y="18.1" width="76.2" height="6"/>
						</defs>
						<clipPath id="SVGID_26_">
							<use xlink:href="#SVGID_25_"  style="overflow:visible;"/>
						</clipPath>
						<rect x="28.8" y="13.2" class="st14" width="87.5" height="16.9"/>
					</g>
				</g>
			</g>
		</g>
	</g>
</g>
</svg>
