<?xml version="1.0" encoding="utf-8"?>
<!-- Generator: Adobe Illustrator 19.2.0, SVG Export Plug-In . SVG Version: 6.00 Build 0)  -->
<svg version="1.1" id="Layer_1" xmlns="http://www.w3.org/2000/svg" xmlns:xlink="http://www.w3.org/1999/xlink" x="0px" y="0px"
	 width="18px" height="16px" viewBox="0 0 18 16" style="enable-background:new 0 0 18 16;" xml:space="preserve">
<style type="text/css">
	.st0{fill:#FFFFFF;}
	.st1{fill:none;}
</style>
<path class="st0" d="M15.9,1c0,0-0.1,0-0.2,0L0.1,8.9C0,9,0,9,0,9.1C0,9.2,0,9.2,0.1,9.2l5,1.6c0.1,0,0.1,0,0.2,0l7.5-6.4L7,11.2
	c0,0,0,0.1,0,0.1C7,11.4,7,11.4,7,11.4l5.8,1.8h0c0,0,0.1,0,0.1,0c0,0,0.1-0.1,0.1-0.1L16,1.2C16,1.1,16,1.1,15.9,1z M8.7,13.2
	l-1.6-0.5c0,0-0.1,0-0.1,0c0,0-0.1,0.1-0.1,0.1v3C6.9,15.9,7,16,7,16c0,0,0,0,0,0c0.1,0,0.1,0,0.1-0.1l1.6-2.5
	C8.9,13.3,8.9,13.2,8.7,13.2C8.8,13.2,8.8,13.2,8.7,13.2L8.7,13.2z"/>
<rect x="0" class="st1" width="18" height="16"/>
</svg>
